M48
; KoalaByte Rev0.5 Version B Interface Shield drill file
METRIC,TZ
T1C0.900
T2C3.200
%
T1
X16.730Y20.000
X19.270Y20.000
X16.730Y22.540
X19.270Y22.540
X16.730Y25.080
X19.270Y25.080
X16.730Y27.620
X19.270Y27.620
X16.730Y30.160
X19.270Y30.160
X16.730Y32.700
X19.270Y32.700
X16.730Y35.240
X19.270Y35.240
X16.730Y37.780
X19.270Y37.780
X16.730Y40.320
X19.270Y40.320
X16.730Y42.860
X19.270Y42.860
X16.730Y45.400
X19.270Y45.400
X16.730Y47.940
X19.270Y47.940
X16.730Y50.480
X19.270Y50.480
X16.730Y53.020
X19.270Y53.020
X16.730Y55.560
X19.270Y55.560
X16.730Y58.100
X19.270Y58.100
X16.730Y60.640
X19.270Y60.640
X16.730Y63.180
X19.270Y63.180
X16.730Y65.720
X19.270Y65.720
X16.730Y68.260
X19.270Y68.260
X80.730Y24.000
X83.270Y24.000
X80.730Y26.540
X83.270Y26.540
X80.730Y29.080
X83.270Y29.080
X80.730Y31.620
X83.270Y31.620
X80.730Y34.160
X83.270Y34.160
X80.730Y36.700
X83.270Y36.700
X80.730Y39.240
X83.270Y39.240
X80.730Y41.780
X83.270Y41.780
X80.730Y44.320
X83.270Y44.320
X80.730Y46.860
X83.270Y46.860
X80.730Y49.400
X83.270Y49.400
X80.730Y51.940
X83.270Y51.940
X80.730Y54.480
X83.270Y54.480
X80.730Y57.020
X83.270Y57.020
X80.730Y59.560
X83.270Y59.560
X80.730Y62.100
X83.270Y62.100
X80.730Y64.640
X83.270Y64.640
X80.730Y67.180
X83.270Y67.180
X80.730Y69.720
X83.270Y69.720
X58.000Y9.000
X58.000Y11.540
X58.000Y14.080
X58.000Y16.620
X58.000Y19.160
X58.000Y21.700
X15.000Y52.000
X15.000Y54.540
X15.000Y57.080
X15.000Y59.620
X31.000Y52.000
X31.000Y54.540
X31.000Y57.080
X31.000Y59.620
X47.000Y52.000
X47.000Y54.540
X47.000Y57.080
X47.000Y59.620
X47.000Y62.160
X66.000Y52.000
X66.000Y54.540
X66.000Y57.080
X66.000Y59.620
X66.000Y62.160
X66.000Y64.700
X66.000Y67.240
X66.000Y69.780
X91.000Y52.000
X91.000Y54.540
X91.000Y57.080
X91.000Y59.620
X91.000Y62.160
X91.000Y64.700
X91.000Y67.240
X91.000Y69.780
X108.000Y15.000
X108.000Y17.540
X108.000Y20.080
X108.000Y36.000
X108.000Y38.540
X108.000Y41.080
X108.000Y43.620
X108.000Y46.160
X108.000Y48.700
X108.000Y51.240
X108.000Y53.780
X108.000Y56.320
X108.000Y58.860
X10.000Y72.000
X10.000Y74.540
T2
X5.000Y5.000
X115.000Y5.000
X115.000Y80.000
X5.000Y80.000
M30
